<?xml version="1.0" encoding="UTF-8" standalone="no"?>
<!-- Created with Inkscape (http://www.inkscape.org/) -->

<svg
   version="1.1"
   id="svg2"
   xml:space="preserve"
   width="394.78473"
   height="166.29308"
   viewBox="0 0 394.78473 166.29308"
   sodipodi:docname="logo.svg"
   inkscape:version="1.1.2 (0a00cf5339, 2022-02-04)"
   xmlns:inkscape="http://www.inkscape.org/namespaces/inkscape"
   xmlns:sodipodi="http://sodipodi.sourceforge.net/DTD/sodipodi-0.dtd"
   xmlns="http://www.w3.org/2000/svg"
   xmlns:svg="http://www.w3.org/2000/svg"><defs
     id="defs6"><clipPath
       clipPathUnits="userSpaceOnUse"
       id="clipPath16"><path
         d="M 455,0 H 680 V 200 H 455 Z"
         id="path14" /></clipPath><clipPath
       clipPathUnits="userSpaceOnUse"
       id="clipPath36"><path
         d="M 0,400 H 680 V 0 H 0 Z"
         id="path34" /></clipPath><clipPath
       clipPathUnits="userSpaceOnUse"
       id="clipPath420"><path
         d="m 476.592,104.419 h 79.219 V 59.5296 h -79.219 z"
         id="path418" /></clipPath><clipPath
       clipPathUnits="userSpaceOnUse"
       id="clipPath424"><path
         d="m 496.544,88.6355 h 59.267 V 59.5296 h -59.267 z"
         id="path422" /></clipPath><clipPath
       clipPathUnits="userSpaceOnUse"
       id="clipPath504"><path
         d="m 608.865,109.624 h 25.822 V 63.4853 h -25.822 z"
         id="path502" /></clipPath></defs><sodipodi:namedview
     id="namedview4"
     pagecolor="#ffffff"
     bordercolor="#666666"
     borderopacity="1.0"
     inkscape:pageshadow="2"
     inkscape:pageopacity="0.0"
     inkscape:pagecheckerboard="0"
     showgrid="false"
     fit-margin-top="20"
     fit-margin-left="20"
     fit-margin-right="20"
     fit-margin-bottom="20"
     inkscape:zoom="4.049226"
     inkscape:cx="211.39843"
     inkscape:cy="77.916125"
     inkscape:window-width="2694"
     inkscape:window-height="1768"
     inkscape:window-x="920"
     inkscape:window-y="127"
     inkscape:window-maximized="0"
     inkscape:current-layer="g8" /><g
     id="g8"
     inkscape:groupmode="layer"
     inkscape:label="MakeMHz2"
     transform="matrix(1.3333333,0,0,-1.3333333,-106.12266,342.90159)"><text
       xml:space="preserve"
       style="font-size:15.2911px;line-height:1.25;font-family:Ubuntu;-inkscape-font-specification:Ubuntu;display:inline;stroke-width:0.764557"
       x="160.78032"
       y="-150.28525"
       id="text7102"
       transform="scale(1,-1)"><tspan
         sodipodi:role="line"
         id="tspan7100"
         style="font-style:normal;font-variant:normal;font-weight:500;font-stretch:normal;font-size:15.2911px;font-family:Ubuntu;-inkscape-font-specification:'Ubuntu Medium';fill:#58595b;fill-opacity:1;stroke-width:0.764557"
         x="160.78032"
         y="-150.28525">Support and Documentation</tspan></text><g
       id="g1023"><g
         id="g26"
         transform="translate(119.8457,224.6133)"
         style="display:inline"><path
           d="M 0,0 18.214,7.34 12.626,-5.088 Z"
           style="fill:#006838;fill-opacity:1;fill-rule:nonzero;stroke:none"
           id="path28" /></g><g
         id="g30"
         style="display:inline"><g
           id="g32"
           clip-path="url(#clipPath36)"><g
             id="g38"
             transform="translate(124.1191,185.1904)"><path
               d="M 0,0 5.135,-4.173 C 4.554,-4.889 4.195,-5.795 4.195,-6.802 h -16.939 c 0,0.995 -0.347,1.902 -0.94,2.617 l 5.147,4.197 c 0.011,0.01 0.022,0.01 0.045,0.022 l 0.559,0.47 c 0.022,0.011 0.034,0.022 0.056,0.045 L -4.274,3.48 -0.671,0.549 -0.66,0.537 Z"
               style="fill:#f37d20;fill-opacity:1;fill-rule:nonzero;stroke:none"
               id="path40" /></g><g
             id="g42"
             transform="translate(128.3145,178.3887)"><path
               d="m 0,0 c 0,-1.008 0.358,-1.914 0.94,-2.63 l -9.409,-7.653 -9.41,7.665 c 0.593,0.716 0.94,1.622 0.94,2.618 z"
               style="fill:#f9a021;fill-opacity:1;fill-rule:nonzero;stroke:none"
               id="path44" /></g><g
             id="g46"
             transform="translate(119.8452,209.2461)"><path
               d="M 0,0 9.409,-7.664 C 8.828,-8.38 8.469,-9.286 8.469,-10.293 H -8.47 c 0,0.996 -0.347,1.902 -0.94,2.618 z"
               style="fill:#fcb831;fill-opacity:1;fill-rule:nonzero;stroke:none"
               id="path48" /></g><g
             id="g50"
             transform="translate(129.2544,196.3232)"><path
               d="M 0,0 -5.124,-4.173 C -5.146,-4.185 -5.169,-4.195 -5.191,-4.218 L -5.807,-4.71 C -5.818,-4.722 -5.84,-4.744 -5.84,-4.755 l -3.569,-2.897 -3.581,2.908 c 0,0.012 -0.011,0.022 -0.022,0.034 l -0.615,0.503 c -0.023,0.012 -0.034,0.022 -0.045,0.034 l -5.147,4.185 c 0.593,0.716 0.94,1.633 0.94,2.618 H -0.94 C -0.94,1.634 -0.582,0.717 0,0"
               style="fill:#f9a021;fill-opacity:1;fill-rule:nonzero;stroke:none"
               id="path52" /></g><g
             id="g54"
             transform="translate(119.8452,209.2461)"><path
               d="m 0,0 -9.41,-7.675 c -0.75,0.94 -1.913,1.544 -3.211,1.544 -1.298,0 -2.45,-0.593 -3.222,-1.533 L -25.253,0 Z"
               style="fill:#ffcb41;fill-opacity:1;fill-rule:nonzero;stroke:none"
               id="path56" /></g><g
             id="g58"
             transform="translate(110.4355,196.335)"><path
               d="m 0,0 5.146,-4.185 c -0.66,0.425 -1.432,0.683 -2.282,0.683 -1.902,0 -3.513,-1.287 -3.994,-3.044 h -13.337 l 8.033,6.534 c 0.772,-0.928 1.925,-1.521 3.223,-1.521 1.297,0 2.461,0.604 3.211,1.533"
               style="fill:#fcb831;fill-opacity:1;fill-rule:nonzero;stroke:none"
               id="path60" /></g><g
             id="g62"
             transform="translate(119.8452,188.6709)"><path
               d="m 0,0 h -2.383 c 0,1.13 -0.459,2.159 -1.198,2.908 z"
               style="fill:#fcb831;fill-opacity:1;fill-rule:nonzero;stroke:none"
               id="path64" /></g><g
             id="g66"
             transform="translate(115.582,185.2021)"><path
               d="m 0,0 -5.146,-4.196 c -0.75,0.94 -1.914,1.545 -3.212,1.545 -1.298,0 -2.45,-0.594 -3.222,-1.534 l -8.033,6.535 h 13.336 c 0.482,-1.757 2.092,-3.033 3.995,-3.033 0.85,0 1.622,0.246 2.282,0.683"
               style="fill:#f9a021;fill-opacity:1;fill-rule:nonzero;stroke:none"
               id="path68" /></g><g
             id="g70"
             transform="translate(119.8452,188.6709)"><path
               d="m 0,0 -3.603,-2.932 c 0.749,0.749 1.22,1.79 1.22,2.932 z"
               style="fill:#f9a021;fill-opacity:1;fill-rule:nonzero;stroke:none"
               id="path72" /></g><g
             id="g74"
             transform="translate(119.8452,168.1055)"><path
               d="m 0,0 h -25.242 l 9.399,7.653 c 0.772,-0.928 1.924,-1.521 3.222,-1.521 1.298,0 2.461,0.593 3.211,1.533 z"
               style="fill:#f37d20;fill-opacity:1;fill-rule:nonzero;stroke:none"
               id="path76" /></g><g
             id="g78"
             transform="translate(145.0864,168.1055)"><path
               d="m 0,0 h -25.241 l 9.409,7.653 c 0.772,-0.928 1.925,-1.521 3.223,-1.521 1.297,0 2.461,0.593 3.211,1.533 z"
               style="fill:#f37d20;fill-opacity:1;fill-rule:nonzero;stroke:none"
               id="path80" /></g><g
             id="g82"
             transform="translate(122.228,188.6709)"><path
               d="M 0,0 C 0,-1.142 0.47,-2.183 1.22,-2.932 L -2.383,0 Z"
               style="fill:#f9a021;fill-opacity:1;fill-rule:nonzero;stroke:none"
               id="path84" /></g><g
             id="g86"
             transform="translate(143.7212,187.5518)"><path
               d="m 0,0 -8.033,-6.546 c -0.75,0.941 -1.913,1.545 -3.211,1.545 -1.298,0 -2.451,-0.594 -3.223,-1.533 l -5.135,4.173 c 0.66,-0.425 1.432,-0.671 2.271,-0.671 1.902,0 3.513,1.275 4.006,3.032 z"
               style="fill:#f9a021;fill-opacity:1;fill-rule:nonzero;stroke:none"
               id="path88" /></g><g
             id="g90"
             transform="translate(119.8452,188.6709)"><path
               d="M 0,0 3.569,2.897 C 2.831,2.147 2.383,1.118 2.383,0 Z"
               style="fill:#f37d20;fill-opacity:1;fill-rule:nonzero;stroke:none"
               id="path92" /></g><g
             id="g94"
             transform="translate(143.7212,189.7891)"><path
               d="m 0,0 h -13.325 c -0.493,1.757 -2.104,3.044 -4.006,3.044 -0.839,0 -1.611,-0.246 -2.26,-0.683 l 5.124,4.173 c 0.772,-0.929 1.925,-1.521 3.223,-1.521 1.298,0 2.461,0.604 3.211,1.533 z"
               style="fill:#f37d20;fill-opacity:1;fill-rule:nonzero;stroke:none"
               id="path96" /></g><g
             id="g98"
             transform="translate(145.0977,209.2461)"><path
               d="m 0,0 -9.41,-7.675 c -0.749,0.94 -1.913,1.544 -3.211,1.544 -1.297,0 -2.45,-0.593 -3.222,-1.533 L -25.252,0 Z"
               style="fill:#f9a021;fill-opacity:1;fill-rule:nonzero;stroke:none"
               id="path100" /></g><g
             id="g102"
             transform="translate(119.8457,209.2407)"><path
               d="M 0,0 12.626,10.285 25.252,0 Z"
               style="fill:#fcb831;fill-opacity:1;fill-rule:nonzero;stroke:none"
               id="path104" /></g><g
             id="g106"
             transform="translate(107.2207,219.5249)"><path
               d="M 0,0 H 25.251 L 12.625,-10.283 Z"
               style="fill:#ffcb41;fill-opacity:1;fill-rule:nonzero;stroke:none"
               id="path108" /></g><g
             id="g110"
             transform="translate(94.5952,209.2407)"><path
               d="M 0,0 12.625,10.285 25.25,0 Z"
               style="fill:#fcd55b;fill-opacity:1;fill-rule:nonzero;stroke:none"
               id="path112" /></g><g
             id="g114"
             transform="translate(94.5923,209.2461)"><path
               d="M 0,0 9.41,-7.664 C 9.052,-8.1 8.783,-8.615 8.626,-9.174 H 0 Z"
               style="fill:#fcd55b;fill-opacity:1;fill-rule:nonzero;stroke:none"
               id="path116" /></g><g
             id="g118"
             transform="translate(104.002,196.3232)"><path
               d="M 0,0 -8.033,-6.534 H -9.41 v 8.045 h 8.627 C -0.626,0.951 -0.358,0.437 0,0"
               style="fill:#ffcb41;fill-opacity:1;fill-rule:nonzero;stroke:none"
               id="path120" /></g><g
             id="g122"
             transform="translate(95.9688,187.5518)"><path
               d="M 0,0 8.033,-6.534 C 7.675,-6.971 7.407,-7.485 7.25,-8.045 H -1.376 V 0 Z"
               style="fill:#fcb831;fill-opacity:1;fill-rule:nonzero;stroke:none"
               id="path124" /></g><g
             id="g126"
             transform="translate(103.2188,177.2695)"><path
               d="M 0,0 C 0.157,-0.56 0.425,-1.074 0.783,-1.511 L -8.615,-9.164 H -8.626 V 0 Z"
               style="fill:#f9a021;fill-opacity:1;fill-rule:nonzero;stroke:none"
               id="path128" /></g><g
             id="g130"
             transform="translate(94.603,168.1074)"><path
               d="M 0,0 H 25.243 L 12.621,-10.28 Z"
               style="fill:#f9a021;fill-opacity:1;fill-rule:nonzero;stroke:none"
               id="path132" /></g><g
             id="g134"
             transform="translate(107.2207,157.8242)"><path
               d="M 0,0 12.625,10.283 25.251,0 Z"
               style="fill:#f37d20;fill-opacity:1;fill-rule:nonzero;stroke:none"
               id="path136" /></g><g
             id="g138"
             transform="translate(119.8472,168.1074)"><path
               d="M 0,0 H 25.242 L 12.621,-10.28 Z"
               style="fill:#f9a021;fill-opacity:1;fill-rule:nonzero;stroke:none"
               id="path140" /></g><g
             id="g142"
             transform="translate(145.0977,177.2695)"><path
               d="M 0,0 V -9.164 H -0.011 L -9.41,-1.499 C -9.052,-1.063 -8.783,-0.56 -8.626,0 Z"
               style="fill:#f9a021;fill-opacity:1;fill-rule:nonzero;stroke:none"
               id="path144" /></g><g
             id="g146"
             transform="translate(145.0977,187.5518)"><path
               d="m 0,0 v -8.045 h -8.626 c -0.157,0.56 -0.426,1.064 -0.784,1.499 L -1.376,0 Z"
               style="fill:#f37d20;fill-opacity:1;fill-rule:nonzero;stroke:none"
               id="path148" /></g><g
             id="g150"
             transform="translate(145.0977,197.834)"><path
               d="M 0,0 V -8.045 H -1.376 L -9.41,-1.499 C -9.052,-1.062 -8.783,-0.56 -8.626,0 Z"
               style="fill:#f9a021;fill-opacity:1;fill-rule:nonzero;stroke:none"
               id="path152" /></g><g
             id="g154"
             transform="translate(145.0977,209.2461)"><path
               d="m 0,0 v -9.174 h -8.626 c -0.157,0.559 -0.426,1.063 -0.784,1.499 z"
               style="fill:#f37d20;fill-opacity:1;fill-rule:nonzero;stroke:none"
               id="path156" /></g><g
             id="g158"
             transform="translate(119.8457,232.1152)"><path
               d="M 0,0 10.09,10.061 12.626,-12.59 5.358,-5.342 Z"
               style="fill:#009444;fill-opacity:1;fill-rule:nonzero;stroke:none"
               id="path160" /></g><g
             id="g162"
             transform="translate(108.311,229.2622)"><path
               d="M 0,0 1.447,12.914 24.161,-9.737 11.536,-4.648 Z"
               style="fill:#39b54a;fill-opacity:1;fill-rule:nonzero;stroke:none"
               id="path164" /></g><g
             id="g166"
             transform="translate(107.2192,219.5249)"><path
               d="M 0,0 -5.586,12.429 21.239,1.618 25.253,0 Z"
               style="fill:#8cc63f;fill-opacity:1;fill-rule:nonzero;stroke:none"
               id="path168" /></g><g
             id="g170"
             transform="translate(109.1377,198.9531)"><path
               d="m 0,0 c 0,-1.061 -0.859,-1.919 -1.919,-1.919 -1.06,0 -1.919,0.858 -1.919,1.919 0,1.06 0.859,1.918 1.919,1.918 C -0.859,1.918 0,1.06 0,0"
               style="fill:#fcb831;fill-opacity:1;fill-rule:nonzero;stroke:none"
               id="path172" /></g><g
             id="g174"
             transform="translate(134.3955,198.9531)"><path
               d="m 0,0 c 0,-1.061 -0.859,-1.919 -1.918,-1.919 -1.061,0 -1.919,0.858 -1.919,1.919 0,1.06 0.858,1.918 1.919,1.918 C -0.859,1.918 0,1.06 0,0"
               style="fill:#f37d20;fill-opacity:1;fill-rule:nonzero;stroke:none"
               id="path176" /></g><g
             id="g178"
             transform="translate(115.2241,188.6709)"><path
               d="m 0,0 c 0,-1.061 -0.859,-1.919 -1.919,-1.919 -1.06,0 -1.919,0.858 -1.919,1.919 0,1.06 0.859,1.919 1.919,1.919 C -0.859,1.919 0,1.06 0,0"
               style="fill:#fcb831;fill-opacity:1;fill-rule:nonzero;stroke:none"
               id="path180" /></g><g
             id="g182"
             transform="translate(128.3091,188.6709)"><path
               d="m 0,0 c 0,-1.061 -0.859,-1.919 -1.919,-1.919 -1.06,0 -1.918,0.858 -1.918,1.919 0,1.06 0.858,1.919 1.918,1.919 C -0.859,1.919 0,1.06 0,0"
               style="fill:#f37d20;fill-opacity:1;fill-rule:nonzero;stroke:none"
               id="path184" /></g><g
             id="g186"
             transform="translate(109.1377,178.3887)"><path
               d="m 0,0 c 0,-1.061 -0.859,-1.919 -1.919,-1.919 -1.06,0 -1.919,0.858 -1.919,1.919 0,1.06 0.859,1.918 1.919,1.918 C -0.859,1.918 0,1.06 0,0"
               style="fill:#f37d20;fill-opacity:1;fill-rule:nonzero;stroke:none"
               id="path188" /></g><g
             id="g190"
             transform="translate(134.3848,178.3887)"><path
               d="m 0,0 c 0,-1.061 -0.859,-1.919 -1.919,-1.919 -1.06,0 -1.919,0.858 -1.919,1.919 0,1.06 0.859,1.918 1.919,1.918 C -0.859,1.918 0,1.06 0,0"
               style="fill:#f37d20;fill-opacity:1;fill-rule:nonzero;stroke:none"
               id="path192" /></g><g
             id="g194"
             transform="translate(167.6865,191.5332)"><path
               d="M 0,0 V -20.031 H -6.145 V 13.017 H 3.12 L 9.03,-5.466 c 0.266,-1.031 0.54,-2.068 0.822,-3.108 0.28,-1.04 0.554,-2.075 0.82,-3.109 0.172,0.595 0.336,1.187 0.493,1.772 0.156,0.587 0.316,1.177 0.481,1.77 0.164,0.594 0.332,1.181 0.504,1.761 l 6.075,19.397 h 9.218 V -20.031 H 21.298 V 0 c 0,0.453 0.019,1.364 0.058,2.731 C 21.395,4.1 21.454,5.59 21.532,7.2 20.985,5.104 20.503,3.322 20.089,1.852 19.675,0.381 19.335,-0.767 19.069,-1.597 L 13.112,-20.031 H 8.186 L 2.228,-1.597 -0.282,7.2 C -0.187,5.387 -0.117,3.882 -0.07,2.685 -0.023,1.488 0,0.594 0,0"
               style="fill:#58595b;fill-opacity:1;fill-rule:nonzero;stroke:none"
               id="path196" /></g><g
             id="g198"
             transform="translate(212.8286,183.2529)"><path
               d="m 0,0 -3.377,-0.047 c -1.549,-0.079 -2.636,-0.243 -3.26,-0.493 -0.642,-0.281 -1.131,-0.704 -1.466,-1.266 -0.336,-0.563 -0.505,-1.313 -0.505,-2.253 0,-1.204 0.277,-2.098 0.833,-2.685 0.555,-0.587 1.294,-0.878 2.217,-0.878 1.031,0 1.977,0.28 2.838,0.844 0.844,0.561 1.508,1.341 1.993,2.333 C -0.243,-3.452 0,-2.401 0,-1.291 Z m -7.669,-12.221 c -2.456,0 -4.371,0.67 -5.747,2.007 -1.376,1.337 -2.064,3.216 -2.064,5.641 0,2.626 0.855,4.619 2.568,5.98 1.712,1.361 4.194,2.072 7.447,2.134 L 0,3.635 V 4.926 C 0,6.583 -0.29,7.813 -0.867,8.62 -1.446,9.425 -2.393,9.828 -3.706,9.828 -4.926,9.828 -5.821,9.549 -6.392,8.994 -6.962,8.44 -7.317,7.521 -7.459,6.239 l -6.872,0.327 c 0.86,5.02 4.496,7.531 10.907,7.531 3.205,0 5.675,-0.79 7.411,-2.37 1.736,-1.579 2.604,-3.823 2.604,-6.732 v -9.241 c 0,-1.424 0.16,-2.404 0.481,-2.942 0.321,-0.541 0.856,-0.81 1.606,-0.81 0.501,0 0.986,0.047 1.454,0.14 v -3.565 c -0.812,-0.204 -1.508,-0.354 -2.086,-0.457 -0.58,-0.101 -1.291,-0.151 -2.135,-0.151 -1.657,0 -2.881,0.404 -3.671,1.218 C 1.451,-10 0.978,-8.805 0.821,-7.225 H 0.68 c -0.923,-1.655 -2.079,-2.904 -3.471,-3.739 -1.392,-0.837 -3.019,-1.257 -4.878,-1.257"
               style="fill:#58595b;fill-opacity:1;fill-rule:nonzero;stroke:none"
               id="path200" /></g><g
             id="g202"
             transform="translate(230.1997,181.0244)"><path
               d="M 0,0 V -9.522 H -6.592 V 25.284 H 0 V 5.347 l 9.053,10.508 h 7.084 L 7.224,5.957 16.817,-9.522 h -7.2 L 2.838,1.971 Z"
               style="fill:#58595b;fill-opacity:1;fill-rule:nonzero;stroke:none"
               id="path204" /></g><g
             id="g206"
             transform="translate(263.2612,187.0518)"><path
               d="m 0,0 c -0.125,2.05 -0.618,3.585 -1.478,4.609 -0.86,1.024 -2.017,1.537 -3.471,1.537 -1.548,0 -2.74,-0.54 -3.577,-1.618 C -9.362,3.448 -9.804,1.94 -9.851,0 Z m -9.897,-4.127 c 0,-2.471 0.457,-4.335 1.371,-5.595 0.915,-1.258 2.217,-1.888 3.905,-1.888 1.157,0 2.108,0.254 2.85,0.763 0.742,0.507 1.263,1.262 1.561,2.262 L 6.004,-9.123 C 4.206,-13.72 0.555,-16.02 -4.949,-16.02 c -3.816,0 -6.747,1.131 -8.796,3.391 -2.048,2.259 -3.072,5.554 -3.072,9.886 0,4.19 1.04,7.411 3.119,9.663 2.08,2.251 5.027,3.378 8.843,3.378 3.643,0 6.427,-1.208 8.35,-3.625 C 5.418,4.258 6.38,0.72 6.38,-3.939 v -0.188 z"
               style="fill:#58595b;fill-opacity:1;fill-rule:nonzero;stroke:none"
               id="path208" /></g><g
             id="g210"
             transform="translate(276.8091,193.5508)"><path
               d="M 0,0 V -22.049 H -3.987 V 11 H 1.9 l 8.796,-22.916 c 0.312,-0.924 0.614,-1.911 0.903,-2.968 0.289,-1.054 0.481,-1.817 0.574,-2.286 0.094,0.422 0.251,1.005 0.469,1.746 0.22,0.743 0.439,1.46 0.657,2.148 0.219,0.687 0.375,1.14 0.47,1.36 L 22.4,11 h 5.747 V -22.049 H 24.112 V 0 c 0,1.218 0.02,2.415 0.059,3.588 C 24.21,4.76 24.26,5.91 24.323,7.035 23.932,5.644 23.568,4.396 23.233,3.295 22.896,2.191 22.572,1.25 22.259,0.468 L 13.721,-22.049 H 10.579 L 1.923,0.468 -0.164,7.035 C -0.133,5.863 -0.098,4.689 -0.058,3.517 -0.02,2.345 0,1.171 0,0"
               style="fill:#58595b;fill-opacity:1;fill-rule:nonzero;stroke:none"
               id="path212" /></g><g
             id="g214"
             transform="translate(314.9136,186.8174)"><path
               d="M 0,0 V -15.315 H -4.479 V 17.733 H 0 V 3.753 h 17.873 v 13.98 h 4.481 V -15.315 H 17.873 V 0 Z"
               style="fill:#58595b;fill-opacity:1;fill-rule:nonzero;stroke:none"
               id="path216" /></g><g
             id="g218"
             transform="translate(360.4077,174.7617)"><path
               d="m 0,0 v -3.26 h -19.679 v 3.213 l 14.191,18.906 h -13.393 v 3.259 H -0.492 V 18.905 L -14.707,0 Z"
               style="fill:#58595b;fill-opacity:1;fill-rule:nonzero;stroke:none;stroke-width:0.99975;stroke-miterlimit:4;stroke-dasharray:none"
               id="path220" /></g></g></g></g></g></svg>
